<?xml version="1.0" encoding="utf-8" ?><svg xmlns="http://www.w3.org/2000/svg" xmlns:xlink="http://www.w3.org/1999/xlink" width="1024" height="1024" viewBox="0 0 1024 1024"><path fill="#0F0D1E" d="M0 0L199.252 0L824.334 0L1024 0L1024 201.724L1024 821.467L1024 1024L822.897 1024L198.704 1024L0 1024L0 821.27L0 203.212L0 0Z"/><path fill="#EAEAE9" d="M1024 821.467L1024 1024L822.897 1024C831.587 1022.08 842.411 1021.84 851.677 1020.05C931.101 1004.7 998.1 941.494 1017.45 862.877C1019.56 854.49 1021.16 845.985 1022.26 837.407C1022.93 832.142 1023.23 826.634 1024 821.467Z"/><path fill="#EAEAE9" d="M824.334 0L1024 0L1024 201.724C1022.68 196.039 1021.86 182.875 1020.51 175.451C1015.34 146.217 1003.95 118.435 987.119 93.9806C958.751 52.4848 915.946 20.5972 867.184 7.65253C858.784 5.44674 850.275 3.68077 841.692 2.36183C835.953 1.52159 829.998 1.05812 824.334 0Z"/><path fill="#EAEAE9" d="M0 0L199.252 0C184.097 2.01254 173.714 3.01797 158.682 6.90749C113.016 19.1562 72.6808 46.1601 43.957 83.7148C23.7267 110.25 9.97457 141.144 3.7968 173.934C2.06082 183.469 1.65495 194.978 0 203.212L0 0Z"/><path fill="#EAEAE9" d="M0 821.27C1.13454 829.057 1.43196 836.965 2.64489 844.787C11.1227 899.455 41.8056 949.041 86.1963 982.167C111.887 1001.2 141.539 1014.19 172.946 1020.18C181.128 1021.81 192.033 1022.49 198.704 1024L0 1024L0 821.27Z"/><path fill="#49BEBA" d="M522.965 114.713C523.097 114.697 523.229 114.678 523.362 114.665C535.019 113.555 547.669 114.61 559.313 115.614C634.726 122.115 714.063 158.82 771.622 207.363C851.899 275.123 901.893 372.058 910.558 476.751C919.854 581.103 887.524 684.899 820.615 765.514C749.437 849.803 656.072 900.751 545.583 909.939C439.25 918.817 333.773 884.877 252.572 815.655C171.03 746.18 120.657 646.982 112.67 540.155C106.447 453.222 128.792 366.636 176.305 293.571C188.422 275.039 198.242 263.343 212.382 246.779C242.805 213.282 282.317 178.161 329.505 174.001C343.938 172.729 360.657 175.051 372.036 184.794C377.693 189.589 381.158 196.478 381.634 203.879C383.369 228.532 359.026 242.666 341.522 253.812C322.263 266.076 304.144 283.521 289.144 300.63C238.224 359.651 212.588 436.346 217.783 514.124C228.477 674.09 371.273 799.771 531.197 790.546C679.14 782.012 806.686 633.132 795.588 485.832C785.503 361.694 695.826 258.557 574.293 231.323C559.346 227.942 544.174 225.646 528.896 224.453C497.236 222.204 465.804 226.713 437.802 203.736C431.185 198.081 424.036 188.083 424.063 178.939C424.2 132.701 488.416 117.162 522.965 114.713Z"/><path fill="#0F0D1E" d="M850.826 415.142C842.734 387.727 822.745 355.052 806.679 331.678C757.541 260.186 678.387 205.391 591.201 195.081C573.567 192.996 555.049 193.754 537.902 198.492C516.409 204.344 492.642 201.59 473.045 191.172C469.053 188.95 463.04 183.476 462.575 178.76C460.45 157.178 495.358 145.676 511.049 142.628C525.386 139.843 539.589 138.765 553.294 140.056C689.522 152.888 807.637 252.217 844.647 383.82C847.53 394.07 849.642 404.264 851.767 414.794L850.826 415.142Z"/><path fill="#1C555B" d="M851.767 414.794C852.06 415.686 852.394 416.837 852.487 417.782L852.132 418.288L852.347 418.506L852.286 418.557C851.766 418.224 851.043 415.794 850.826 415.142L851.767 414.794Z"/></svg>